<?xml version="1.0" standalone="no"?>
<!DOCTYPE svg PUBLIC "-//W3C//DTD SVG 20010904//EN"
 "http://www.w3.org/TR/2001/REC-SVG-20010904/DTD/svg10.dtd">
<svg version="1.0" xmlns="http://www.w3.org/2000/svg"
 width="512.000000pt" height="512.000000pt" viewBox="0 0 512.000000 512.000000"
 preserveAspectRatio="xMidYMid meet">
<metadata>
Created by potrace 1.14, written by Peter Selinger 2001-2017
</metadata>
<g transform="translate(0.000000,512.000000) scale(0.100000,-0.100000)"
fill="#000000" stroke="none">
<path d="M739 5093 c-60 -31 -112 -92 -129 -151 -6 -23 -10 -199 -10 -457 0
-457 0 -454 56 -475 22 -9 24 -15 24 -79 0 -65 -1 -69 -25 -75 -59 -15 -56 53
-53 -1207 l3 -1154 22 -40 c11 -22 34 -52 50 -67 54 -50 1828 -1351 1868
-1369 53 -24 147 -24 200 0 44 20 1674 1334 1717 1384 62 72 58 -41 58 1811 0
1134 -4 1703 -10 1728 -17 59 -69 120 -129 151 l-55 27 -1766 0 -1766 0 -55
-27z m2179 -561 c7 -16 24 -34 38 -40 17 -9 146 -12 434 -12 358 0 411 -2 424
-16 14 -14 16 -147 16 -1315 0 -877 -3 -1307 -10 -1320 -11 -19 -35 -19 -1258
-19 -957 0 -1251 3 -1260 12 -17 17 -17 2629 0 2646 9 9 180 12 709 12 684 0
697 0 722 20 14 11 29 29 32 40 5 17 15 20 73 20 64 0 68 -1 80 -28z"/>
<path d="M1765 4155 c-30 -29 -32 -74 -6 -106 17 -21 29 -24 110 -27 l91 -4 0
-369 c0 -305 3 -375 15 -398 24 -46 74 -55 119 -20 l26 20 0 385 0 384 86 0
c81 0 87 1 115 29 16 16 29 37 29 46 0 24 -27 72 -45 79 -9 3 -129 6 -266 6
l-250 0 -24 -25z"/>
<path d="M2761 4164 c-152 -41 -281 -162 -332 -311 -33 -94 -32 -232 1 -318
49 -127 132 -220 245 -274 186 -89 394 -58 541 81 106 100 154 209 154 352 0
141 -45 249 -145 348 -120 119 -300 166 -464 122z m243 -164 c69 -26 134 -83
171 -151 40 -75 47 -188 15 -272 -26 -69 -94 -143 -165 -177 -41 -21 -65 -25
-135 -25 -73 0 -93 4 -141 28 -67 32 -132 99 -162 165 -16 35 -21 67 -21 127
0 60 5 92 21 127 39 85 126 162 213 189 50 15 148 9 204 -11z"/>
<path d="M1821 2984 c-20 -26 -21 -38 -21 -370 l0 -343 24 -28 24 -28 134 0
c162 1 214 16 288 82 145 130 173 397 61 570 -74 114 -144 143 -347 143 -142
0 -143 0 -163 -26z m330 -157 c19 -12 45 -44 59 -72 21 -42 25 -64 25 -140 0
-163 -57 -231 -199 -242 l-76 -6 0 242 0 241 79 0 c64 0 84 -4 112 -23z"/>
<path d="M2830 2989 c-297 -115 -361 -500 -117 -699 83 -68 164 -93 280 -88
74 3 103 10 149 32 87 42 152 105 195 194 36 73 38 80 38 177 0 97 -2 104 -38
177 -43 89 -107 152 -195 194 -48 24 -72 28 -157 31 -83 3 -109 -1 -155 -18z
m245 -158 c82 -37 145 -136 145 -226 0 -90 -63 -189 -145 -226 -48 -22 -151
-25 -199 -5 -47 19 -104 73 -129 120 -30 57 -30 165 0 222 25 46 81 100 127
120 46 20 153 17 201 -5z"/>
</g>
</svg>
